@startuml smart-model
' 页面基类
class SmartPage{
    string AppTitle
    AppBar AppBar
    List<Component> Components
}
' 应用栏
class AppBar{
    string Title
}
' 组件基类
abstract class Component{
    string url
    string method
    dynamic componentData
    string ComponentType
    string ComponentId
    string ComponentHeight
    object[] Dependencies
}
' 简单条件过滤
class SmartSimpleFilter{
    bool DefaultFoldCondition
    bool DisableFold
    Component[] Components
}
' 复选组件
class CheckboxGroup{
    string Label
    string Field
    CheckboxItem[] items
    bool visibleWhenFolded
}
class CheckboxItem{
    string Name
    string Value
    bool Checked
}
' 统计组件
class StatisticTable{
    string Field
    bool VisibleWhenFolded
}
class StatisticItem{
    string Name
    string Value
    bool Checked
    bool Clickable
}
' 排序组件
class OrderFieldGroup{
    string Label
    string Field
    bool VisibleWhenFolded
}
class OrderFieldItem{
    string Name
    string Value
    string OrderType
}
' 搜索组件
class SearchBox{
    string Field
    bool VisibleWhenFolded
    string UserGuid
    string Placeholder
    string Value
}
' Tabs（选项卡）
class SmartTabs{
    string Position
    string Active
    SmartTab[] Tabs
}
' Tab（选项卡子项）
class SmartTab{
    string TabId
    string TabName
    string TabValue
    string BubbleCntN
    string BubbleColor
    Component[] Children
}
' 滚动列表
class SmartListView
' 表单
class SmartForm
' 路线图
class SmartRoadMap
' 超文本
class SmartHyperText
' 印章标签
class SmartSealTag
' Type	              Symbol
' Extension|Generalization（扩展|泛化）	    <|--
' Realize（实现）	    <|..
' Composition（组合）	*--
' Aggregation（聚合）	o--
' Dependency（依赖）	..
' Association（关联）	--
' 类之间的关系
' Class01 <|-- Class02 01 继承 02
' Class03 *-- Class04 03 组合 04
' Class05 o-- Class06 05 聚合 06
' Class07 .. Class08 07 依赖 08
' Class09 -- Class10 09 关联 10
SmartPage --> Component
SmartPage --> AppBar

SmartTabs-->SmartTab

SmartListView..|>Component
SmartForm..|>Component
SmartTabs..|>Component
SmartRoadMap..|>Component
SmartHyperText..|>Component
SmartSealTag..|>Component

' 条件过滤组件关联子组件
SmartSimpleFilter --> CheckboxGroup
CheckboxGroup --|> Component
SmartSimpleFilter --> StatisticTable
StatisticTable --|> Component
SmartSimpleFilter --> OrderFieldGroup
OrderFieldGroup --|> Component
SmartSimpleFilter --> SearchBox
SearchBox --|> Component

@enduml